<svg xmlns="http://www.w3.org/2000/svg" xmlns:xlink="http://www.w3.org/1999/xlink" version="1.1" x="0px" y="0px" viewBox="0 0 100 125" enable-background="new 0 0 100 100" xml:space="preserve"><g display="none"><path display="inline" d="M68.997,43.007h-38c-1.104,0-2,0.896-2,2V93c0,1.105,0.896,2,2,2H31.7h36.594h0.703c1.105,0,2-0.895,2-2   V45.007C70.997,43.903,70.102,43.007,68.997,43.007z M67.075,87H32.997V47.007h34L67.075,87z M50,93.007c-1.104,0-2-0.895-2-2   c0-1.104,0.896-2,2-2c1.104,0,1.997,0.896,1.997,2C51.997,92.113,51.104,93.007,50,93.007z"/></g><g display="none"><path display="inline" d="M60.007,53.008H39.993c-1.101,0-1.993,0.896-1.993,2.001v37.998c0,1.104,0.892,2.001,1.993,2.001h20.015   c1.1,0,1.993-0.896,1.993-2.001V55.009C62,53.905,61.107,53.008,60.007,53.008z M58.014,57.01v29.997H41.985V57.01H58.014z    M50,93.007c-1.104,0-2-0.895-2-2c0-1.104,0.896-2,2-2c1.104,0,1.997,0.896,1.997,2C51.997,92.113,51.104,93.007,50,93.007z"/></g><g display="none"><path display="inline" d="M94.54,91.736l-9.543-11.729v-46c0-1.104-0.896-2-2-2h-66c-1.104,0-2,0.896-2,2v46L5.453,91.736   c-0.493,0.598-0.596,1.426-0.266,2.125c0.331,0.701,1.035,1.146,1.809,1.146h86.001c0.773,0,1.479-0.445,1.809-1.146   S95.032,92.333,94.54,91.736z M18.997,36.007h62v43h-62V36.007z M52.165,92.007c-0.855,0-3.482,0-4.338,0   c-1.601,0-2.896-1.311-2.983-2.977H13.012l4.985-6.023h64l5,6.023h-32C54.911,90.699,53.766,92.007,52.165,92.007z"/></g><g display="none"><g display="inline"><path d="M93.01,17.016H6.997c-1.105,0-2,0.896-2,2v61.958c0,1.105,0.895,2.033,2,2.033c0,0,28.439-0.006,28.984,0l-6.596,8.781    c-0.447,0.607-0.514,1.415-0.174,2.088s1.03,1.131,1.785,1.131h38c0.754,0,1.444-0.425,1.785-1.098    c0.34-0.673,0.272-1.48-0.175-2.088l-6.608-8.814c0.635-0.002,29.012,0,29.012,0c1.104,0,2-0.928,2-2.033V19.016    C95.01,17.911,94.114,17.016,93.01,17.016z M34.997,90.974l3.011-4h23.977l3.012,4H34.997z M90.997,79.007h-82v-8h82V79.007z     M91.01,66.974H8.997V21.016H91.01V66.974z"/><circle cx="49.918" cy="74.974" r="2"/></g></g><g display="none"><g display="inline"><path d="M72.997,11.019h-46L5,49.989l21.997,39.009h46L95,49.989L72.997,11.019z M71.163,80.039    c-3.501-8.224-11.655-14.031-21.166-14.031c-9.51,0-17.664,5.807-21.165,14.03L13.59,53.007h15.406c1.657,0,3-1.343,3-3    c0-1.657-1.343-3-3-3H13.573L28.749,20.12l7.643,13.375c0.554,0.969,1.566,1.512,2.607,1.512c0.504,0,1.016-0.127,1.485-0.396    c1.438-0.822,1.938-2.654,1.116-4.093l-7.714-13.5h32.22l-7.715,13.5c-0.822,1.438-0.322,3.271,1.116,4.093    c0.47,0.269,0.98,0.396,1.485,0.396c1.042,0,2.054-0.543,2.607-1.512l7.644-13.376l15.182,26.888h-15.43c-1.657,0-3,1.343-3,3    c0,1.657,1.343,3,3,3H86.41L71.163,80.039z"/><path d="M50,37.009c-7.168,0-13,5.832-13,13.001c0,7.167,5.832,12.999,13,12.999c7.168,0,13-5.832,13-12.999    C63,42.841,57.168,37.009,50,37.009z"/></g></g><g display="none"><rect x="5" y="5" display="inline" fill="none" stroke="#000000" stroke-width="0.02" stroke-miterlimit="10" width="90" height="90"/></g><g display="none"><path display="inline" d="M50.006,20C19.509,20,4.978,50.028,5,50.028c0,0,0.004-0.009,0.013-0.026   c0,0,13.984,29.997,44.993,29.997C78.997,80,95,50.002,95,50.002S80.997,20,50.006,20z M40,36.007h20c1.104,0,2,0.896,2,2   s-0.896,2-2,2H40c-1.104,0-2-0.896-2-2S38.896,36.007,40,36.007z M40,45.007h20c1.104,0,2,0.896,2,2s-0.896,2-2,2H40   c-1.104,0-2-0.896-2-2S38.896,45.007,40,45.007z M39.997,54.007h10c1.104,0,2,0.896,2,2s-0.896,2-2,2h-10c-1.104,0-2-0.896-2-2   S38.892,54.007,39.997,54.007z M50.006,74.007c-11,0-20.891-4.573-29.399-13.104c-4.086-4.096-7.046-8.26-8.61-10.867   c2.787-4.546,9.53-13.969,20.187-19.569C28.945,34.43,27,39.489,27,45.002c0,12.704,10.306,23.005,22.994,23.005   C62.709,68.007,73,57.707,73,45.002c0-5.546-1.963-10.633-5.233-14.605c4.113,2.148,7.999,5.06,11.633,8.701   c4.018,4.027,7.016,8.292,8.597,10.909C83.467,56.848,69.945,74.007,50.006,74.007z"/></g><g display="none"><path display="inline" d="M50.006,20C19.509,20,4.978,50.028,5,50.028c0,0,0.004-0.009,0.013-0.026   c0,0,13.984,29.997,44.993,29.997C78.997,80,95,50.002,95,50.002S80.997,20,50.006,20z M66.997,45.007c0,1.104-0.896,2-2,2h-11v-4   h11C66.101,43.007,66.997,43.903,66.997,45.007z M47.997,49.007h4v11c0,1.104-0.896,2-2,2s-2-0.896-2-2V49.007z M49.997,28.007   c1.104,0,2,0.896,2,2v11h-4v-11C47.997,28.903,48.892,28.007,49.997,28.007z M34.997,43.007h11v4h-11c-1.104,0-2-0.896-2-2   S33.892,43.007,34.997,43.007z M50.006,74.007c-11,0-20.891-4.573-29.399-13.104c-4.086-4.096-7.046-8.26-8.61-10.867   c2.787-4.546,9.53-13.969,20.187-19.569C28.945,34.43,27,39.489,27,45.002c0,12.704,10.306,23.005,22.994,23.005   C62.709,68.007,73,57.707,73,45.002c0-5.546-1.963-10.633-5.233-14.605c4.113,2.148,7.999,5.06,11.633,8.701   c4.018,4.027,7.016,8.292,8.597,10.909C83.467,56.848,69.945,74.007,50.006,74.007z"/></g><g display="none"><path display="inline" d="M17.997,23.007h20c1.104,0,2,0.896,2,2c0,1.105-0.896,2-2,2h-20c-1.104,0-2-0.895-2-2   C15.997,23.904,16.892,23.007,17.997,23.007z"/><path display="inline" d="M18.455,33.007h10c1.104,0,2,0.896,2,2c0,1.105-0.896,2-2,2h-10c-1.104,0-2-0.895-2-2   C16.455,33.904,17.35,33.007,18.455,33.007z"/><path display="inline" d="M50.997,29.028V17.007h41c1.657,0,3-1.343,3-3s-1.343-3-3-3c0,0-83.818,0-84,0c-1.657,0-3,1.343-3,3v32   c0,1.657,1.343,3,3,3h3.614C7.175,54.523,4.991,59.027,5,59.027c0,0,0.004-0.008,0.013-0.025c0,0,13.984,29.997,44.993,29.997   C78.997,88.999,95,59.001,95,59.001S81.288,29.665,50.997,29.028z M10.997,43.007v-26h34v17.988c0,4.697-4,8.011-9,8.012   C35.894,43.007,10.997,43.007,10.997,43.007z M50.006,83.006c-11,0-20.891-4.573-29.399-13.104   c-4.086-4.096-7.046-8.26-8.61-10.867c1.475-2.406,4.071-6.18,7.757-10.028H53c1.104,0,2,0.896,2,2c0,1.105-0.896,2-2,2H27.03   c-0.016,0.33-0.03,0.66-0.03,0.994c0,1.72,0.195,3.394,0.553,5.006h15.443c1.104,0,2,0.896,2,2c0,1.105-0.896,2-2,2H28.833   c3.506,8.229,11.666,13.999,21.162,13.999C62.709,77.006,73,66.706,73,54.001c0-5.546-1.963-10.633-5.233-14.605   c4.113,2.148,7.999,5.06,11.633,8.701c4.018,4.027,7.016,8.292,8.597,10.909C83.467,65.847,69.945,83.006,50.006,83.006z"/></g><g display="none"><path display="inline" d="M63.772,51.965h4.225c8.742,0,16-7.112,16-15.854c0-8.007-6.018-14.647-13.739-15.707   C67.678,11.65,59.548,5.007,50,5.007c-9.546,0-17.677,6.643-20.258,15.398c-7.72,1.06-13.746,7.699-13.746,15.707   c0,8.742,7.258,15.854,16,15.854h4.303L20.484,75.86c-1.159,1.877-2.518,6.135-0.257,10.189c3.362,6.028,12.818,8.958,28.908,8.958   c17.161,0,27.188-3.02,30.651-9.23c2.22-3.979,0.919-8.106-0.25-9.997L63.772,51.965z M22,36.112   c0-5.473,4.435-10.104,9.908-10.104c0.453,0,1.655,0,3.088,0c0.075-8.315,6.67-15,15.004-15c8.333,0,14.924,6.685,14.996,15   c1.435,0,2.643,0,3.095,0c5.473,0,9.909,4.632,9.909,10.104c0,5.472-4.531,9.909-10.004,9.909c-3.103,0-32.896,0-36,0   C26.523,46.021,22,41.583,22,36.112z M43.494,51.965h13.083l12.991,19.626c-4.913-1.667-11.719-2.513-20.404-2.513   c-7.734,0-13.889,0.742-18.457,2.203L43.494,51.965z M49.135,89.007c-18.309,0-22.633-4.08-23.642-5.834   c-1.076-1.87-0.07-3.858,0.094-4.157l0.49-0.739c1.932-2.285,7.439-5.341,23.086-5.341c18.866,0,23.964,4.003,25.324,6.39   c0.229,0.403,0.375,0.805,0.466,1.195c0.096,0.695,0.05,1.544-0.437,2.385C73.458,84.741,68.865,89.007,49.135,89.007z"/></g><g display="none"><g display="inline"><path fill="#000000" d="M88.773,39.362L53.586,8.326c-1.094-0.879-2.418-1.319-3.742-1.319c-1.333,0-2.665,0.445-3.76,1.334    L11.236,39.362c-1.395,1.133-2.205,2.833-2.205,4.629v39.043c0,3.295,2.67,5.965,5.964,5.965h22v-5.965h-22V43.992l34.849-31.02    l35.187,31.035v39.028H52.997V71.361c2.931-1.186,5.043-4.055,5.043-7.412c0-4.42-3.582-8-8-8s-8,3.58-8,8    c0,3.357,2.026,6.227,4.957,7.412v1.646v10.029V89h38.035c3.294,0,5.965-2.67,5.965-5.963v-39.03    C90.997,42.203,90.177,40.494,88.773,39.362z"/><path fill="#000000" d="M50.039,46.129c-6.133,0-11.757,3.094-15.046,8.277c-0.833,1.311-0.444,3.049,0.867,3.881    c0.468,0.297,0.989,0.438,1.505,0.438c0.931,0,1.841-0.461,2.377-1.305c2.251-3.547,6.101-5.666,10.297-5.666    c4.182,0,8.021,2.105,10.277,5.631c0.836,1.309,2.572,1.691,3.885,0.855c1.309-0.838,1.689-2.576,0.854-3.887    C61.759,49.204,56.146,46.129,50.039,46.129z"/><path fill="#000000" d="M26.4,49.042c-0.867,1.374-0.457,3.188,0.916,4.057c0.488,0.309,1.031,0.455,1.568,0.455    c0.976,0,1.93-0.484,2.49-1.371c4.071-6.444,11.048-10.292,18.664-10.292c7.583,0,14.544,3.822,18.623,10.226    c0.872,1.367,2.691,1.771,4.061,0.898c1.37-0.873,1.773-2.69,0.9-4.06c-5.164-8.107-13.98-12.947-23.583-12.947    C40.393,36.007,31.557,40.88,26.4,49.042z"/></g></g><g display="none"><g display="inline"><path d="M50.013,18.122c-6.133,0-11.758,3.094-15.047,8.276c-0.832,1.311-0.443,3.049,0.867,3.881    c0.468,0.297,0.989,0.438,1.505,0.438c0.931,0,1.841-0.461,2.377-1.305c2.251-3.547,6.101-5.666,10.298-5.666    c4.181,0,8.022,2.105,10.277,5.631c0.837,1.309,2.573,1.691,3.885,0.854c1.309-0.836,1.69-2.576,0.854-3.885    C61.735,21.197,56.122,18.122,50.013,18.122z"/><path d="M27.302,25.091c0.488,0.309,1.031,0.455,1.568,0.455c0.976,0,1.93-0.484,2.49-1.371    c4.07-6.445,11.048-10.293,18.663-10.293c7.583,0,14.545,3.822,18.623,10.225c0.872,1.369,2.691,1.773,4.061,0.9    c1.37-0.873,1.773-2.69,0.9-4.061C68.444,12.839,59.627,8,50.024,8c-9.646,0-18.481,4.873-23.638,13.035    C25.519,22.408,25.929,24.224,27.302,25.091z"/><path d="M62,82h-8.043V64h36.039c0-4.977-3.966-9-9-9H53.958v-8.007c0-3,4-5,4.043-11.051c0.031-4.42-3.582-8-8.001-8    c-4.418,0-7.962,3.58-8,8c-0.043,5.051,3.957,8.051,3.957,11.051V55h-26.96c-5.033,0-9,4.023-9,9h35.96v18H38    c-2.387,0-5.004,2.316-5.004,5.008L50,92l16.996-4.992C66.997,84.316,64.386,82,62,82z"/></g></g><g display="none"><path display="inline" d="M75.193,26.797l4.431-6.963c-2.238-2.982-4.919-5.612-7.941-7.801l-6.877,4.379   c-2.426-1.445-5.062-2.551-7.868-3.262l-1.728-7.771c-1.7-0.24-3.442-0.372-5.208-0.372c-2.063,0-4.084,0.176-6.056,0.501   l-1.698,7.643c-2.802,0.711-5.44,1.814-7.863,3.26l-6.447-4.106c-3.062,2.28-5.757,5.027-7.988,8.131l4.048,6.361   c-1.444,2.423-2.547,5.062-3.259,7.867l-7.32,1.795C13.144,38.27,13,40.122,13,42.006c0,1.948,0.151,3.86,0.441,5.723l7.296,1.62   c0.712,2.811,1.814,5.445,3.257,7.865l-4.047,6.361c2.231,3.104,4.926,5.852,7.989,8.135l6.447-4.107   c2.423,1.445,5.062,2.555,7.863,3.258l1.698,7.645c1.972,0.326,3.992,0.502,6.056,0.502c1.766,0,3.508-0.262,5.208-0.502   l1.728-7.645c2.806-0.703,5.442-1.812,7.868-3.258l6.874,4.381c3.024-2.193,5.705-4.82,7.944-7.803l-4.431-6.969   c1.444-2.42,2.546-5.053,3.258-7.863l8.135-1.807C86.858,45.735,87,43.889,87,42.006c0-1.85-0.141-3.671-0.404-5.448l-8.146-1.895   C77.739,31.859,76.637,29.222,75.193,26.797z"/><path display="inline" fill="#000000" d="M50.002,64.008c-12.158,0-22.001-9.843-22.001-22.001c0-12.158,9.843-22,22.001-22   c12.148,0,21.998,9.842,21.998,22C72,54.166,62.151,64.008,50.002,64.008z"/><path display="inline" d="M57.999,52.009c0,4.422-3.574,7.998-7.998,7.998c-4.421,0-8.002-3.576-8.002-7.998   c0-4.421,3.581-8.002,8.002-8.002C54.424,44.007,57.999,47.588,57.999,52.009z"/><g display="inline"><path d="M62.407,81.797c-4.277,0-8.812,1.49-12.788,5.962c-3.726-4.473-8.092-5.963-12.258-5.962    c-8.332,0-15.864,5.962-15.864,5.962v3.346h57v-3.346C78.497,87.759,70.964,81.797,62.407,81.797L62.407,81.797z"/></g></g><g display="none"><rect x="43" y="6.007" display="inline" width="14" height="74"/><rect x="43" y="6.007" transform="matrix(0.7071 0.7071 -0.7071 0.7071 45.0533 -22.7593)" display="inline" width="14" height="73.999"/><rect x="13" y="36.007" display="inline" width="74" height="14"/><rect x="43" y="6.007" transform="matrix(-0.7071 0.7071 -0.7071 -0.7071 115.7662 38.0618)" display="inline" width="14" height="74"/><circle display="inline" cx="50" cy="43.007" r="30"/><circle display="inline" cx="50" cy="43.007" r="36"/><circle display="inline" fill="#000000" cx="50" cy="43.007" r="24"/></g><g display="none"><path display="inline" d="M79.921,20.987c-2.622-3.911-5.99-7.278-9.9-9.9L57,24.107V5.693c-2.265-0.446-4.604-0.686-7-0.686   c-2.396,0-4.735,0.239-7,0.686v18.415L29.979,11.086c-3.91,2.622-7.277,5.989-9.899,9.899l13.021,13.021H14.686   c-0.446,2.265-0.686,4.604-0.686,7c0,2.396,0.239,4.735,0.686,7h18.413L20.079,61.028c2.622,3.91,5.989,7.278,9.899,9.899   L43,57.906v18.416c2.265,0.446,4.604,0.686,7,0.686c2.396,0,4.735-0.239,7-0.686V57.906l13.021,13.021   c3.91-2.621,7.277-5.989,9.898-9.898L66.9,48.007h18.415c0.446-2.265,0.686-4.604,0.686-7c0-2.396-0.239-4.735-0.686-7H66.9   L79.921,20.987z"/><circle display="inline" cx="50" cy="41.007" r="30"/><circle display="inline" fill="#000000" cx="50" cy="41.007" r="24"/><circle display="inline" cx="50" cy="52.007" r="9"/><g display="inline"><path d="M62.407,80.007c-4.277,0-8.812,1.442-12.788,5.766c-3.726-4.324-8.092-5.766-12.258-5.766    c-8.332,0.001-15.864,5.766-15.864,5.766v3.234h57v-3.234C78.497,85.773,70.964,80.007,62.407,80.007L62.407,80.007z"/></g><g display="inline"><path d="M-17.007,11.019h-46l-21.997,38.97l21.997,39.009h46L4.997,49.989L-17.007,11.019z M-18.841,80.039    c-3.501-8.224-11.655-14.031-21.166-14.031c-9.51,0-17.664,5.807-21.165,14.03l-15.241-27.03h15.406c1.657,0,3-1.343,3-3    c0-1.657-1.343-3-3-3h-15.423l15.176-26.887l7.643,13.375c0.554,0.969,1.566,1.512,2.607,1.512c0.504,0,1.016-0.127,1.485-0.396    c1.438-0.822,1.938-2.654,1.116-4.093l-7.714-13.5h32.22l-7.715,13.5c-0.822,1.438-0.322,3.271,1.116,4.093    c0.47,0.269,0.98,0.396,1.485,0.396c1.042,0,2.054-0.543,2.607-1.512l7.644-13.376l15.182,26.888h-15.43c-1.657,0-3,1.343-3,3    c0,1.657,1.343,3,3,3h15.413L-18.841,80.039z"/></g></g><g display="none"><path display="inline" d="M79.921,20.987c-2.622-3.911-5.99-7.278-9.9-9.9L57,24.107V5.693c-2.265-0.446-4.604-0.686-7-0.686   c-2.396,0-4.735,0.239-7,0.686v18.415L29.979,11.086c-3.91,2.622-7.277,5.989-9.899,9.899l13.021,13.021H14.686   c-0.446,2.265-0.686,4.604-0.686,7c0,2.396,0.239,4.735,0.686,7h18.413L20.079,61.028c2.622,3.91,5.989,7.278,9.899,9.899   L43,57.906v18.416c2.265,0.446,4.604,0.686,7,0.686c2.396,0,4.735-0.239,7-0.686V57.906l13.021,13.021   c3.91-2.621,7.277-5.989,9.898-9.898L66.9,48.007h18.415c0.446-2.265,0.686-4.604,0.686-7c0-2.396-0.239-4.735-0.686-7H66.9   L79.921,20.987z"/><circle display="inline" cx="50" cy="41.007" r="30"/><circle display="inline" fill="#000000" cx="50" cy="41.007" r="24"/><circle display="inline" cx="50" cy="52.007" r="9"/><g display="inline"><path d="M60.219,80.613c-4.287,0-8.196,1.342-10.223,5.395c-2.026-4.053-5.934-5.396-10.223-5.395    c-8.409,0-18.277,5.16-18.277,5.16v3.234h57v-3.234C78.497,85.773,68.628,80.613,60.219,80.613L60.219,80.613z"/></g><g display="inline"><path d="M4.997,48.418L5,39.53l-12.036-2.673c-0.69-2.718-1.758-5.274-3.159-7.623l6.62-10.399L-9.86,12.55l-10.4,6.615    c-2.348-1.398-4.908-2.466-7.626-3.161l-2.673-12.029h-8.889l-2.674,12.029c-2.717,0.695-5.275,1.762-7.624,3.161l-10.396-6.619    l-6.288,6.289l6.618,10.399c-1.399,2.344-2.469,4.905-3.16,7.623l-12.026,2.673L-75,48.418l12.028,2.675    c0.691,2.717,1.761,5.276,3.158,7.63l-6.615,10.392l6.287,6.292l10.396-6.618c2.349,1.401,4.907,2.471,7.624,3.156l2.674,12.03    h8.889l2.673-12.03c2.718-0.686,5.278-1.757,7.626-3.156l10.394,6.613l6.289-6.287l-6.617-10.396    c1.401-2.349,2.469-4.908,3.159-7.625L4.997,48.418z"/></g></g><g><g><path d="M18,91.007c0,0,21.997-14,32-1c9.997-13,32,1,32,1v3H18V91.007z"/></g><g><path d="M59.003,54.004c0,4.978-4.03,9.003-9.002,9.003c-4.97,0-8.998-4.025-8.998-9.003c0-4.968,4.028-8.997,8.998-8.997    C54.973,45.007,59.003,49.037,59.003,54.004z"/><path d="M86.47,49.148c0.337-1.999,0.526-4.049,0.526-6.14s-0.19-4.142-0.527-6.142l-6.552-1.456    c-0.739-2.916-1.894-5.666-3.393-8.183l3.56-5.596c-2.404-3.36-5.354-6.307-8.71-8.713l-5.602,3.563    c-2.52-1.505-5.269-2.659-8.182-3.395l-1.452-6.548c-2.004-0.344-4.052-0.531-6.143-0.531s-4.142,0.187-6.141,0.53l-1.458,6.549    c-2.916,0.736-5.665,1.891-8.182,3.396l-5.6-3.566c-3.359,2.406-6.305,5.351-8.71,8.71l3.565,5.601    c-1.505,2.517-2.66,5.267-3.396,8.183l-6.549,1.457c-0.343,2-0.53,4.05-0.53,6.141c0,2.091,0.187,4.141,0.529,6.14l6.549,1.459    c0.736,2.92,1.89,5.668,3.395,8.184l-3.568,5.605c2.406,3.356,5.351,6.304,8.71,8.705l5.599-3.562    c2.52,1.499,5.27,2.652,8.187,3.391l1.457,6.552c2,0.337,4.051,0.526,6.142,0.526c2.092,0,4.14-0.189,6.144-0.527l1.451-6.55    c2.914-0.738,5.67-1.893,8.185-3.391l5.602,3.56c3.357-2.402,6.307-5.351,8.71-8.708l-3.56-5.602    c1.499-2.515,2.652-5.265,3.391-8.184L86.47,49.148z M49.997,66.007c-12.745,0-23-10.248-23-23c0-12.733,10.255-23,23-23    c12.74,0,23,10.267,23,23C72.997,55.759,62.737,66.007,49.997,66.007z"/></g></g><text x="0" y="115" fill="#000000" font-size="5px" font-weight="bold" font-family="'Helvetica Neue', Helvetica, Arial-Unicode, Arial, Sans-serif">Created by David Carrero</text><text x="0" y="120" fill="#000000" font-size="5px" font-weight="bold" font-family="'Helvetica Neue', Helvetica, Arial-Unicode, Arial, Sans-serif">from the Noun Project</text></svg>